<svg xmlns="http://www.w3.org/2000/svg" width="600" height="710.678" viewBox="0 0 600 710.678"><path d="M225.055 412.542c-1.5.599-3.09.993-4.7 1.28s-3.24.465-4.853.42l9.553-1.7zM316.72 396.227c-1.5.6-3.09.993-4.7 1.28-1.61.286-3.24.466-4.853.42l9.553-1.7z" fill="#450dce"/><circle cx="233.84" cy="470.705" r="27.215" fill="#f49800"/><circle cx="321.463" cy="455.11" r="27.215" fill="#ffdf0f"/><circle cx="409.085" cy="439.516" r="27.215" fill="#c7d41a"/><circle cx="496.708" cy="423.921" r="27.215" fill="#0097d8"/><path d="M443.5.76L40.509 72.483C13.888 77.221-3.97 102.88.759 129.444l71.657 402.618c4.737 26.619 30.342 44.486 56.96 39.748l402.994-71.723c26.619-4.738 44.486-30.342 39.748-56.961L500.462 40.509C495.734 13.943 470.12-3.978 443.5.759zm114.328 434.555c4.489 25.224-12.486 49.618-37.764 54.116L137.25 557.564c-25.277 4.498-49.626-12.54-54.116-37.764L15.06 137.308c-4.498-25.277 12.487-49.617 37.764-54.116L435.637 15.06c25.277-4.499 49.617 12.486 54.116 37.764l68.075 382.491zM103.463 246.72c-16.758 2.982-28.029 19.134-25.046 35.892l21.568 121.186c2.983 16.758 19.134 28.029 35.892 25.046 16.759-2.982 28.03-19.134 25.047-35.892l-21.568-121.186c-2.983-16.758-19.134-28.029-35.893-25.046zm346.91-61.755l-53.292 9.485-9.246-51.95c-1.49-8.373-6.282-15.382-12.784-19.873-6.511-4.544-14.744-6.622-23.116-5.132-16.744 2.98-28.048 19.11-25.068 35.855l36.24 203.616c2.98 16.745 19.164 28.039 35.909 25.058 16.744-2.98 28.038-19.164 25.057-35.909l-16.151-90.752 53.292-9.485c8.372-1.49 15.382-6.28 19.926-12.792 4.553-6.458 6.632-14.69 5.141-23.063-2.99-16.798-19.11-28.047-35.908-25.058zM279.6 215.358c-16.744 2.98-27.984 19.154-25.004 35.899l16.066 90.27L239.91 347l-16.066-90.27c-1.49-8.372-6.281-15.382-12.793-19.926-6.512-4.544-14.744-6.622-23.116-5.132-16.744 2.98-28.038 19.164-25.058 35.909l21.568 121.182c2.693 15.134 16.164 25.804 31.056 25.479l101.218-18.015c14.142-4.842 23.051-19.495 20.358-34.63L315.51 240.417c-1.49-8.372-6.281-15.382-12.793-19.926-6.512-4.544-14.744-6.622-23.116-5.132zM88.797 164.313c-16.828 2.995-28.042 19.064-25.047 35.892s19.065 28.042 35.893 25.047c16.828-2.995 28.041-19.065 25.046-35.893-2.994-16.828-19.064-28.041-35.892-25.046zm85.418 496.507c-.771-4.33-2.9-6.183-6.385-5.563-3.589.638-4.942 3.44-4.059 8.401.02.108.213.889.582 2.349a62.32 62.32 0 0 1 .92 4.247c.498 2.2.967 4.514 1.399 6.942l.113.635c.94 5.28.54 8.889-1.194 10.832-1.732 1.942-6.046 3.528-12.94 4.755l-10.027 1.784c-3.818.68-6.261.327-7.33-1.064-1.07-1.388-2.324-5.823-3.763-13.304l-7.499-42.131c-2.18-12.249-3.309-19.974-3.388-23.175-.079-3.196.883-4.976 2.89-5.333.845-.15 1.87-.197 3.08-.14 1.209.056 1.971.057 2.289 0 3.485-.62 4.906-2.724 4.267-6.316-.3-1.686-1.14-3.038-2.516-4.044-1.38-1.005-2.914-1.362-4.601-1.062-1.584.282-3.908.998-6.974 2.14-3.064 1.145-5.442 1.868-7.13 2.168-1.797.32-4.33.47-7.6.454-3.27-.015-5.646.106-7.124.369-4.014.714-5.652 3.13-4.92 7.248.64 3.592 2.646 5.086 6.028 4.484.633-.113 1.505-.404 2.62-.875 1.116-.47 1.935-.752 2.465-.846 2.004-.357 3.55.98 4.637 4.013 1.083 3.033 2.72 10.696 4.91 22.993l5.375 30.206c2.17 12.189 3.267 19.891 3.297 23.113.026 3.221-.963 5.01-2.968 5.366-.212.038-1.2-.003-2.963-.127-.605-.326-1.434-.397-2.488-.21-3.382.603-4.76 2.645-4.139 6.13.752 4.225 3.132 5.979 7.147 5.264 2.005-.357 5.072-1.177 9.203-2.456 4.13-1.279 10.524-2.689 19.184-4.23 1.795-.32 5.89-.885 12.28-1.697 5.97-.735 9.544-1.152 10.725-1.255 3.012-.208 5.206-.435 6.58-.68 4.54-.807 6.416-3.43 5.627-7.864-.038-.213-.543-2.137-1.518-5.778a86.813 86.813 0 0 1-1.643-7.386c-.357-2.006-.92-6.265-1.688-12.775-.321-2.664-.573-4.525-.761-5.582zm70.3-5.812c-3.015.536-4.115 3.077-3.307 7.616l.817 4.592c1.335 7.5.81 11.458-1.572 11.882-1.732.308-2.925-1.058-3.58-4.101l-6.906-38.808c-1.334-7.495-2.865-12.726-4.59-15.687-2.157-3.539-5.427-6.006-9.815-7.405-3.91-1.155-8.082-1.339-12.517-.55-6.652 1.184-11.828 4.094-15.523 8.728-3.697 4.636-5.028 9.858-3.995 15.663 1.222 6.865 4.578 9.808 10.07 8.83 4.752-.845 6.724-3.537 5.916-8.079-.32-1.796-1.291-3.582-2.917-5.365-.82-.942-1.279-1.676-1.373-2.205-.32-1.796.78-3.571 3.3-5.329 2.241-1.486 4.313-2.401 6.214-2.74 7.286-1.296 11.69 2.333 13.212 10.887.732 4.117.409 7.199-.97 9.242-1.38 2.043-4.284 3.783-8.71 5.226-7.733 2.466-13.274 5.303-16.624 8.515-4.747 4.549-6.348 11.153-4.807 19.812 1.202 6.757 4.168 11.95 8.9 15.574 4.73 3.625 10.156 4.892 16.281 3.802 7.603-1.353 13.11-5.601 16.524-12.747 2.816 6.037 7.236 8.518 13.254 7.447 5.173-.92 8.454-3.302 9.84-7.144 1.385-3.842 1.263-10.356-.372-19.545-1.071-6.018-3.322-8.721-6.75-8.111zm-20.747 11.535c.086 4.781-.99 8.837-3.226 12.176-2.24 3.342-5.206 5.34-8.9 5.998-3.486.62-6.518-.039-9.095-1.977-2.58-1.935-4.206-4.808-4.882-8.608-1.316-7.392 1.757-12.46 9.223-15.207l6.901-2.535c2.758-1.035 5.501-2.45 8.234-4.242 1.151 7.094 1.732 11.892 1.745 14.395zm104.112-4.475l-3.168.563c-1.69.301-2.856-.276-3.497-1.74-.643-1.462-1.57-5.617-2.79-12.465l-4.022-22.601c-1.969-11.06-4.658-18.516-8.068-22.367-4.766-5.347-11.53-7.242-20.292-5.683-7.817 1.392-13.504 5.24-17.066 11.535l-.62-3.485c-.433-2.428-1.496-3.492-3.182-3.192-.635.113-1.656.514-3.058 1.199-.701.343-1.844.655-3.425.937-.952.17-2.328.25-4.127.243-1.797-.007-3.12.064-3.965.215-1.374.244-2.435 1.007-3.188 2.284-.754 1.277-.989 2.71-.707 4.293.602 3.38 2.328 4.815 5.18 4.307l3.166-.563c1.688-.3 2.933.396 3.723 2.092.794 1.698 1.775 5.843 2.95 12.442l4.92 27.648c1.212 6.809 1.765 11.005 1.661 12.59-.106 1.587-1.014 2.531-2.727 2.836l-3.212.571c-3 .534-4.178 2.597-3.539 6.187.64 3.59 2.602 5.094 5.895 4.508.528-.094 2.231-.672 5.109-1.728 1.745-.638 3.733-1.156 5.963-1.552 1.804-.321 3.786-.563 5.948-.731 3.294.068 5.364.027 6.214-.124 3.289-.586 4.615-2.675 3.976-6.265-.639-3.59-2.384-5.132-5.237-4.624l-3.168.563c-1.688.3-2.854-.277-3.494-1.739-.643-1.461-1.57-5.615-2.79-12.462l-3.43-19.272c-1.387-7.795-1.02-14.241 1.107-19.347 2.127-5.105 5.71-8.107 10.754-9.004 4.937-.88 8.817.225 11.643 3.306 2.824 3.082 4.95 8.626 6.375 16.629l3.964 22.276c1.042 7.097 1.56 11.377 1.55 12.846-.012 1.467-.81 2.341-2.392 2.623l-3.329.592c-1.161.207-2.07.915-2.724 2.12-.662 1.207-.856 2.548-.593 4.027.64 3.59 2.648 5.086 6.028 4.484 1.371-.244 3.368-.821 5.985-1.72 2.617-.9 4.612-1.475 5.984-1.72 1.269-.225 3.13-.337 5.58-.338 2.448-.003 4.256-.103 5.418-.31 3.272-.582 4.59-2.67 3.951-6.26-.639-3.589-2.383-5.132-5.234-4.624zm79.67-14.18l-3.167.564c-1.689.3-2.857-.277-3.495-1.742-.643-1.461-1.571-5.616-2.79-12.464l-4.022-22.601c-1.969-11.06-4.66-18.516-8.07-22.367-4.764-5.347-11.529-7.242-20.292-5.682-7.815 1.39-13.505 5.239-17.067 11.535l-.62-3.485c-.432-2.428-1.493-3.493-3.182-3.193-.635.113-1.653.514-3.055 1.199-.704.344-1.844.655-3.428.937-.952.17-2.325.25-4.124.243-1.798-.007-3.123.065-3.967.215-1.372.244-2.434 1.008-3.189 2.285-.752 1.277-.988 2.709-.706 4.292.601 3.38 2.327 4.815 5.18 4.308l3.168-.564c1.686-.3 2.93.397 3.72 2.093.797 1.697 1.778 5.842 2.953 12.44l4.92 27.65c1.212 6.808 1.765 11.004 1.659 12.59-.104 1.586-1.015 2.53-2.725 2.835l-3.213.572c-2.998.533-4.18 2.597-3.54 6.187.639 3.59 2.604 5.093 5.895 4.507.527-.094 2.233-.672 5.11-1.728 1.746-.638 3.735-1.156 5.964-1.552 1.801-.32 3.784-.563 5.945-.731 3.297.068 5.365.027 6.214-.124 3.292-.586 4.618-2.675 3.979-6.265-.64-3.59-2.384-5.132-5.237-4.624l-3.168.563c-1.69.301-2.854-.277-3.497-1.738s-1.57-5.616-2.789-12.462l-3.43-19.272c-1.387-7.796-1.017-14.242 1.106-19.347 2.127-5.106 5.712-8.108 10.757-9.005 4.934-.879 8.815.225 11.643 3.306 2.824 3.082 4.948 8.627 6.372 16.63l3.965 22.275c1.041 7.097 1.559 11.377 1.551 12.846-.014 1.467-.81 2.341-2.393 2.623l-3.327.592c-1.164.208-2.07.915-2.727 2.12-.659 1.207-.855 2.549-.592 4.028.639 3.59 2.647 5.085 6.03 4.483 1.371-.244 3.366-.82 5.986-1.72 2.613-.9 4.609-1.475 5.983-1.72 1.266-.225 3.127-.337 5.58-.337 2.448-.004 4.253-.103 5.415-.31 3.275-.583 4.59-2.67 3.951-6.26-.638-3.59-2.383-5.132-5.234-4.625zm12.036-79.273c2.218-.395 3.95-1.682 5.196-3.865 1.245-2.183 1.632-4.594 1.162-7.234-.451-2.533-1.605-4.589-3.467-6.166-1.858-1.573-3.843-2.174-5.957-1.798-2.006.357-3.628 1.653-4.862 3.887-1.239 2.237-1.639 4.57-1.207 6.998.49 2.748 1.606 4.89 3.35 6.43 1.748 1.543 3.671 2.124 5.785 1.748zm26.708 72.378l-3.21.571c-1.717.305-2.896-.272-3.545-1.738-.649-1.464-1.579-5.628-2.8-12.493l-7.415-41.659c-.225-1.266-.313-2.666-.26-4.201l-.732-4.12c-.451-2.533-1.522-3.652-3.21-3.351-.847.15-2.13.601-3.846 1.34-1.723.741-3.057 1.198-4.006 1.367-.952.17-2.088.208-3.411.116-2.21-.15-3.468-.201-3.785-.145-1.374.245-2.456 1.04-3.256 2.377-.795 1.343-1.06 2.753-.798 4.229.602 3.38 2.432 4.796 5.495 4.251l2.536-.451c2.533-.451 4.12 1.109 4.756 4.68-.056-.315.478 2.406 1.614 8.163.355 1.995.779 4.222 1.272 6.681.49 2.46.793 4.003.905 4.633l3.224 18.116c1.215 6.827 1.772 11.033 1.675 12.623-.1 1.589-.994 2.533-2.683 2.833l-3.168.564c-2.958.527-4.114 2.586-3.475 6.176s2.655 5.084 6.051 4.48c1.06-.19 2.745-.711 5.061-1.556 2.31-.847 4.155-1.394 5.534-1.64 1.38-.245 3.485-.4 6.322-.47 2.828-.07 4.937-.224 6.32-.47 3.393-.604 4.772-2.703 4.133-6.293-.638-3.59-2.405-5.128-5.298-4.613zm27.76-76.68c-8.66 1.542-14.865 6.461-18.619 14.753-3.753 8.294-4.522 18.673-2.305 31.131 2.218 12.461 6.516 21.91 12.891 28.347 6.375 6.439 13.89 8.885 22.552 7.344 8.656-1.54 14.868-6.43 18.63-14.673 3.763-8.24 4.534-18.593 2.316-31.054-2.217-12.458-6.517-21.935-12.902-28.425-6.383-6.487-13.907-8.963-22.563-7.422zm23.598 60.512c-2.142 6.046-5.797 9.53-10.968 10.45-5.177.92-9.782-1.092-13.822-6.038-4.04-4.943-6.87-11.957-8.486-21.041-1.616-9.08-1.385-16.665.691-22.755s5.7-9.592 10.876-10.514c5.172-.92 9.808 1.112 13.914 6.102 4.101 4.99 6.96 12.025 8.575 21.106 1.617 9.083 1.357 16.647-.78 22.69zm96.957-10.23l-3.167.565c-1.69.3-2.857-.277-3.495-1.742-.643-1.461-1.571-5.616-2.79-12.464l-4.023-22.602c-1.968-11.06-4.66-18.515-8.07-22.366-4.763-5.347-11.528-7.242-20.291-5.682-7.815 1.39-13.505 5.238-17.067 11.535l-.62-3.485c-.432-2.429-1.493-3.493-3.182-3.193-.635.113-1.654.513-3.055 1.198-.704.345-1.844.656-3.428.938-.952.17-2.325.25-4.124.243-1.799-.007-3.123.065-3.967.215-1.372.244-2.434 1.007-3.19 2.285-.751 1.276-.987 2.708-.705 4.292.601 3.38 2.327 4.815 5.18 4.307l3.167-.563c1.686-.3 2.931.397 3.722 2.092.795 1.698 1.777 5.843 2.952 12.442l4.92 27.648c1.212 6.809 1.765 11.005 1.659 12.591-.104 1.586-1.015 2.53-2.725 2.835l-3.213.572c-2.998.533-4.18 2.597-3.54 6.186.638 3.59 2.604 5.094 5.895 4.508.527-.094 2.233-.672 5.11-1.728 1.746-.638 3.735-1.156 5.964-1.553 1.801-.32 3.784-.562 5.945-.73 3.297.068 5.365.027 6.214-.124 3.292-.586 4.618-2.675 3.979-6.265-.64-3.59-2.384-5.132-5.237-4.625l-3.168.564c-1.69.301-2.854-.277-3.497-1.738-.643-1.462-1.57-5.616-2.789-12.462l-3.43-19.272c-1.387-7.796-1.017-14.242 1.106-19.348 2.127-5.105 5.712-8.107 10.757-9.005 4.934-.878 8.815.226 11.643 3.307 2.824 3.082 4.948 8.627 6.372 16.63l3.965 22.275c1.041 7.097 1.559 11.377 1.55 12.846-.013 1.467-.809 2.341-2.393 2.623l-3.326.592c-1.164.207-2.07.915-2.727 2.12-.659 1.207-.856 2.549-.592 4.028.639 3.59 2.647 5.085 6.03 4.483 1.371-.244 3.366-.821 5.986-1.72 2.613-.9 4.608-1.475 5.983-1.72 1.266-.225 3.127-.337 5.58-.338 2.448-.003 4.253-.102 5.415-.309 3.275-.583 4.59-2.67 3.951-6.26-.639-3.59-2.383-5.132-5.234-4.625z"/></svg>